<?xml version="1.0" encoding="iso-8859-1"?>
<!-- Generator: Adobe Illustrator 16.0.0, SVG Export Plug-In . SVG Version: 6.00 Build 0)  -->
<!DOCTYPE svg PUBLIC "-//W3C//DTD SVG 1.1//EN" "http://www.w3.org/Graphics/SVG/1.1/DTD/svg11.dtd">
<svg version="1.1" id="Capa_1" xmlns="http://www.w3.org/2000/svg" xmlns:xlink="http://www.w3.org/1999/xlink" x="0px" y="0px"
	 width="102.166px" height="102.166px" viewBox="0 0 102.166 102.166" style="enable-background:new 0 0 102.166 102.166;"
	 xml:space="preserve">
<g>
	<g>
		<path d="M77.5,8.75v24.666h24.666V8.75H77.5z M98.166,29.416H81.5V12.75h16.666V29.416z"/>
		<path d="M77.5,93.416h24.666V68.75H77.5V93.416z M81.5,72.75h16.666v16.666H81.5V72.75z"/>
		<path d="M0,93.416h24.666V68.75H0V93.416z M4,72.75h16.666v16.666H4V72.75z"/>
		<path d="M38.75,63.268h24.666V38.601H38.75V63.268z M42.75,42.601h16.666v16.667H42.75V42.601z"/>
		<polygon points="86.583,65.167 91.583,65.167 91.583,37.1 86.583,37.1 86.583,48.434 67.832,48.434 67.832,53.434 86.583,53.434 
					"/>
		<polygon points="12.332,48.451 9.833,48.451 9.833,65.167 14.833,65.167 14.833,53.434 35.582,53.434 35.582,48.434 
			12.332,48.434 		"/>
	</g>
</g>
<g>
</g>
<g>
</g>
<g>
</g>
<g>
</g>
<g>
</g>
<g>
</g>
<g>
</g>
<g>
</g>
<g>
</g>
<g>
</g>
<g>
</g>
<g>
</g>
<g>
</g>
<g>
</g>
<g>
</g>
</svg>
